<svg width="174" height="24" viewBox="0 0 174 24" fill="none" xmlns="http://www.w3.org/2000/svg">
<path d="M10.7723 11.6172C10.7723 11.0891 10.6755 10.5963 10.4818 10.1386C10.3058 9.66337 10.0594 9.25853 9.74257 8.92409C9.42574 8.57206 9.0473 8.29923 8.60726 8.10561C8.18482 7.91199 7.71837 7.81518 7.20792 7.81518C6.69747 7.81518 6.22222 7.91199 5.78218 8.10561C5.35974 8.29923 4.9901 8.57206 4.67327 8.92409C4.35644 9.25853 4.10121 9.65457 3.90759 10.1122C3.73157 10.5699 3.64356 11.0715 3.64356 11.6172C3.64356 12.1628 3.73157 12.6645 3.90759 13.1221C4.08361 13.5798 4.33003 13.9758 4.64686 14.3102C4.9637 14.6447 5.33333 14.9087 5.75577 15.1023C6.19582 15.2959 6.67107 15.3927 7.18152 15.3927C7.69197 15.3927 8.16722 15.2959 8.60726 15.1023C9.0473 14.9087 9.42574 14.6447 9.74257 14.3102C10.0594 13.9758 10.3058 13.5798 10.4818 13.1221C10.6755 12.6469 10.7723 12.1452 10.7723 11.6172ZM6.70627 4.51485C7.53355 4.51485 8.29043 4.66447 8.9769 4.9637C9.66337 5.24532 10.2618 5.66777 10.7723 6.23102V0H14.4158V18.4554H10.7723V16.9505C9.66337 18.1298 8.31683 18.7195 6.73267 18.7195C5.81738 18.7195 4.9549 18.5259 4.14521 18.1386C3.33553 17.7514 2.62266 17.2321 2.0066 16.5809C1.39054 15.912 0.89769 15.1463 0.528053 14.2838C0.176018 13.4037 0 12.4796 0 11.5116C0 10.5435 0.176018 9.63696 0.528053 8.79208C0.880088 7.92959 1.35534 7.18152 1.9538 6.54785C2.56986 5.91419 3.28273 5.42134 4.09241 5.06931C4.91969 4.69967 5.79098 4.51485 6.70627 4.51485Z" fill="#111827"/>
<path d="M27.2162 10.1914C26.9521 9.45215 26.5297 8.87129 25.9488 8.44884C25.368 8.0088 24.7079 7.78878 23.9686 7.78878C23.2118 7.78878 22.5429 8 21.962 8.42244C21.3812 8.84488 20.9499 9.43454 20.6683 10.1914H27.2162ZM29.1964 16.3696C28.9323 16.7217 28.5979 17.0473 28.1931 17.3465C27.8058 17.6282 27.3746 17.8746 26.8993 18.0858C26.4241 18.2794 25.9224 18.429 25.3944 18.5347C24.8663 18.6579 24.3383 18.7195 23.8102 18.7195C22.8421 18.7195 21.9268 18.5347 21.0644 18.165C20.2019 17.7778 19.445 17.2673 18.7937 16.6337C18.1601 15.9824 17.6584 15.2255 17.2888 14.363C16.9191 13.4829 16.7343 12.5589 16.7343 11.5908C16.7343 10.6051 16.9279 9.68977 17.3152 8.84488C17.7024 7.9824 18.2217 7.23432 18.8729 6.60066C19.5418 5.967 20.3163 5.46535 21.1964 5.09571C22.0941 4.72607 23.0446 4.54125 24.0479 4.54125C25.1568 4.54125 26.1689 4.76128 27.0842 5.20132C27.9994 5.62376 28.7739 6.22222 29.4076 6.9967C30.0413 7.75358 30.5077 8.65127 30.8069 9.68977C31.1062 10.7107 31.203 11.8284 31.0974 13.0429H20.6683C20.8971 13.747 21.3372 14.3278 21.9884 14.7855C22.6397 15.2431 23.379 15.4719 24.2063 15.4719C25.2976 15.4719 26.2217 15.0231 26.9785 14.1254L29.1964 16.3696Z" fill="#111827"/>
<path d="M32.8492 11.4323C32.8492 10.4818 33.0164 9.58416 33.3509 8.73927C33.7029 7.89439 34.1781 7.16392 34.7766 6.54785C35.3751 5.91419 36.0703 5.42134 36.8624 5.06931C37.6545 4.69967 38.5082 4.51485 39.4235 4.51485C41.0252 4.51485 42.3806 5.08691 43.4895 6.23102V4.75248H47.1594V17.4521C47.1594 18.4378 46.9834 19.3267 46.6314 20.1188C46.2794 20.9285 45.7777 21.615 45.1264 22.1782C44.4928 22.7591 43.7271 23.2079 42.8294 23.5248C41.9493 23.8416 40.9636 24 39.8723 24C37.7601 24 36.0615 23.3751 34.7766 22.1254L35.7007 19.3003C36.1055 19.758 36.6336 20.1188 37.2849 20.3828C37.9537 20.6469 38.6842 20.7789 39.4763 20.7789C40.0395 20.7789 40.5676 20.7085 41.0604 20.5677C41.5533 20.4268 41.9757 20.2332 42.3278 19.9868C42.6798 19.7404 42.9526 19.4411 43.1462 19.0891C43.3575 18.7547 43.4631 18.385 43.4631 17.9802V16.9241C42.3542 18.0682 41.0252 18.6403 39.4763 18.6403C38.5786 18.6403 37.7249 18.4466 36.9152 18.0594C36.1231 17.6722 35.4191 17.1529 34.803 16.5017C34.2046 15.8504 33.7293 15.0847 33.3773 14.2046C33.0252 13.3245 32.8492 12.4004 32.8492 11.4323ZM39.9779 15.2871C40.4884 15.2871 40.9548 15.1991 41.3773 15.0231C41.8173 14.8295 42.1869 14.5743 42.4862 14.2574C42.803 13.923 43.0494 13.5358 43.2254 13.0957C43.4015 12.6381 43.4895 12.1452 43.4895 11.6172C43.4895 11.0891 43.4015 10.5963 43.2254 10.1386C43.0494 9.66337 42.803 9.25853 42.4862 8.92409C42.1693 8.58966 41.7909 8.32563 41.3509 8.13201C40.9284 7.93839 40.462 7.84158 39.9515 7.84158C39.4587 7.84158 39.001 7.93839 38.5786 8.13201C38.1561 8.30803 37.7953 8.56326 37.4961 8.89769C37.1968 9.23212 36.9592 9.62816 36.7832 10.0858C36.6072 10.5435 36.5192 11.0451 36.5192 11.5908C36.5192 12.1364 36.6072 12.6381 36.7832 13.0957C36.9592 13.5358 37.1968 13.923 37.4961 14.2574C37.7953 14.5743 38.1561 14.8295 38.5786 15.0231C39.0186 15.1991 39.4851 15.2871 39.9779 15.2871Z" fill="#111827"/>
<path d="M54.5386 6.33663C55.2074 5.65017 55.9995 5.18372 56.9148 4.93729C57.8301 4.69087 58.7454 4.56766 59.6607 4.56766L58.5518 7.92079C57.302 7.92079 56.3163 8.21122 55.5947 8.79208C54.8906 9.35534 54.5386 10.297 54.5386 11.6172V18.4554H50.9214V4.75248H54.5386V6.33663Z" fill="#111827"/>
<path d="M70.6619 10.1914C70.3979 9.45215 69.9754 8.87129 69.3946 8.44884C68.8137 8.0088 68.1537 7.78878 67.4144 7.78878C66.6575 7.78878 65.9886 8 65.4078 8.42244C64.8269 8.84488 64.3957 9.43454 64.1141 10.1914H70.6619ZM72.6421 16.3696C72.3781 16.7217 72.0437 17.0473 71.6388 17.3465C71.2516 17.6282 70.8203 17.8746 70.3451 18.0858C69.8698 18.2794 69.3682 18.429 68.8401 18.5347C68.3121 18.6579 67.784 18.7195 67.256 18.7195C66.2879 18.7195 65.3726 18.5347 64.5101 18.165C63.6476 17.7778 62.8907 17.2673 62.2395 16.6337C61.6058 15.9824 61.1042 15.2255 60.7345 14.363C60.3649 13.4829 60.1801 12.5589 60.1801 11.5908C60.1801 10.6051 60.3737 9.68977 60.7609 8.84488C61.1482 7.9824 61.6674 7.23432 62.3187 6.60066C62.9875 5.967 63.762 5.46535 64.6421 5.09571C65.5398 4.72607 66.4903 4.54125 67.4936 4.54125C68.6025 4.54125 69.6146 4.76128 70.5299 5.20132C71.4452 5.62376 72.2197 6.22222 72.8533 6.9967C73.487 7.75358 73.9534 8.65127 74.2527 9.68977C74.5519 10.7107 74.6487 11.8284 74.5431 13.0429H64.1141C64.3429 13.747 64.7829 14.3278 65.4342 14.7855C66.0855 15.2431 66.8247 15.4719 67.652 15.4719C68.7433 15.4719 69.6674 15.0231 70.4243 14.1254L72.6421 16.3696Z" fill="#111827"/>
<path d="M85.6943 18.033C85.043 18.5435 84.1365 18.7987 82.9748 18.7987C81.4435 18.7987 80.2378 18.3938 79.3577 17.5842C78.4952 16.7569 78.0639 15.6128 78.0639 14.1518V8.0264H76.5062V4.9901H78.0639V0H81.7075V4.9901H83.7141L84.691 8.0264H81.7075L81.6811 14.0198C81.6811 15.1287 82.2972 15.6832 83.5293 15.6832C83.7757 15.6832 83.9957 15.6568 84.1894 15.604C84.4006 15.5336 84.603 15.4279 84.7966 15.2871L85.6943 18.033Z" fill="#111827"/>
<path d="M97.9853 10.7916H96.4656V10.1579C96.4656 9.53352 96.7227 9.19376 97.393 9.19376C97.6777 9.19376 97.8797 9.25804 98.0083 9.29936L98.3297 8.18825C98.1368 8.11478 97.7374 8 97.1818 8C96.0661 8 95.0882 8.65197 95.0882 9.97429V10.7916H94V11.8935H95.0882V17.8439H96.4656V11.8935H97.9853V10.7916Z" fill="#111827"/>
<path d="M102.095 17.9862C104.083 17.9862 105.382 16.5308 105.382 14.3499C105.382 12.1552 104.083 10.6997 102.095 10.6997C100.107 10.6997 98.8072 12.1552 98.8072 14.3499C98.8072 16.5308 100.107 17.9862 102.095 17.9862ZM102.099 16.8338C100.8 16.8338 100.194 15.6997 100.194 14.3453C100.194 12.9954 100.8 11.8476 102.099 11.8476C103.389 11.8476 103.995 12.9954 103.995 14.3453C103.995 15.6997 103.389 16.8338 102.099 16.8338Z" fill="#111827"/>
<path d="M106.914 17.8439H108.287V13.5372C108.287 12.6143 108.999 11.9486 109.972 11.9486C110.257 11.9486 110.578 11.9991 110.688 12.0312V10.7181C110.551 10.6997 110.28 10.686 110.105 10.686C109.279 10.686 108.572 11.1543 108.315 11.9118H108.241V10.7916H106.914V17.8439Z" fill="#111827"/>
<path d="M115.408 8.44077V17.8439H116.758V11.0349H116.846L119.619 17.8301H120.739L123.512 11.0395H123.599V17.8439H124.949V8.44077H123.228L120.234 15.7502H120.124L117.13 8.44077H115.408Z" fill="#111827"/>
<path d="M126.902 17.8439H128.275V10.7916H126.902V17.8439ZM127.595 9.7034C128.068 9.7034 128.463 9.33609 128.463 8.88613C128.463 8.43618 128.068 8.06428 127.595 8.06428C127.118 8.06428 126.727 8.43618 126.727 8.88613C126.727 9.33609 127.118 9.7034 127.595 9.7034Z" fill="#111827"/>
<path d="M131.494 13.6566C131.494 12.5317 132.183 11.8889 133.138 11.8889C134.07 11.8889 134.635 12.4995 134.635 13.5234V17.8439H136.008V13.3581C136.008 11.6134 135.048 10.6997 133.606 10.6997C132.546 10.6997 131.852 11.191 131.526 11.9394H131.439V10.7916H130.121V17.8439H131.494V13.6566Z" fill="#111827"/>
<path d="M140.888 17.9862C142.426 17.9862 143.514 17.2287 143.827 16.0808L142.527 15.8466C142.279 16.5124 141.683 16.8522 140.902 16.8522C139.727 16.8522 138.937 16.09 138.9 14.7309H143.914V14.2443C143.914 11.6961 142.39 10.6997 140.792 10.6997C138.827 10.6997 137.532 12.1965 137.532 14.3636C137.532 16.5537 138.808 17.9862 140.888 17.9862ZM138.905 13.7025C138.96 12.7016 139.685 11.8338 140.801 11.8338C141.866 11.8338 142.564 12.6235 142.569 13.7025H138.905Z" fill="#111827"/>
<path d="M148.408 17.9862C150.074 17.9862 151.153 16.9853 151.305 15.6125H149.969C149.794 16.3747 149.202 16.8246 148.417 16.8246C147.255 16.8246 146.507 15.8558 146.507 14.3177C146.507 12.8072 147.269 11.8568 148.417 11.8568C149.289 11.8568 149.822 12.4077 149.969 13.0689H151.305C151.158 11.6455 149.996 10.6997 148.394 10.6997C146.406 10.6997 145.12 12.1965 145.12 14.3499C145.12 16.4757 146.36 17.9862 148.408 17.9862Z" fill="#111827"/>
<path d="M152.773 17.8439H154.146V13.5372C154.146 12.6143 154.857 11.9486 155.831 11.9486C156.115 11.9486 156.437 11.9991 156.547 12.0312V10.7181C156.409 10.6997 156.138 10.686 155.964 10.686C155.138 10.686 154.43 11.1543 154.173 11.9118H154.1V10.7916H152.773V17.8439Z" fill="#111827"/>
<path d="M159.724 18C160.89 18 161.547 17.4077 161.809 16.8797H161.864V17.8439H163.205V13.1607C163.205 11.1084 161.588 10.6997 160.468 10.6997C159.192 10.6997 158.016 11.214 157.557 12.4995L158.847 12.7934C159.049 12.2929 159.564 11.8108 160.486 11.8108C161.373 11.8108 161.827 12.2746 161.827 13.0735V13.1056C161.827 13.6061 161.313 13.5969 160.046 13.7438C158.71 13.8999 157.341 14.2489 157.341 15.8512C157.341 17.2378 158.384 18 159.724 18ZM160.023 16.8981C159.247 16.8981 158.687 16.5491 158.687 15.8696C158.687 15.135 159.339 14.8733 160.133 14.7677C160.578 14.708 161.634 14.5886 161.832 14.3912V15.3003C161.832 16.1359 161.166 16.8981 160.023 16.8981Z" fill="#111827"/>
<path d="M168.389 10.7916H166.87V10.1579C166.87 9.53352 167.127 9.19376 167.797 9.19376C168.082 9.19376 168.284 9.25804 168.412 9.29936L168.734 8.18825C168.541 8.11478 168.141 8 167.586 8C166.47 8 165.492 8.65197 165.492 9.97429V10.7916H164.404V11.8935H165.492V17.8439H166.87V11.8935H168.389V10.7916Z" fill="#111827"/>
<path d="M173.098 10.7916H171.652V9.10193H170.279V10.7916H169.246V11.8935H170.279V16.0579C170.274 17.3388 171.252 17.9587 172.336 17.9357C172.772 17.9311 173.066 17.8485 173.226 17.7888L172.978 16.6547C172.887 16.6731 172.717 16.7144 172.496 16.7144C172.051 16.7144 171.652 16.5675 171.652 15.7732V11.8935H173.098V10.7916Z" fill="#111827"/>
</svg>
